<?xml version="1.0" standalone="no"?><!DOCTYPE svg PUBLIC "-//W3C//DTD SVG 1.1//EN" "http://www.w3.org/Graphics/SVG/1.1/DTD/svg11.dtd"><svg t="1544598797836" class="icon" style="" viewBox="0 0 1024 1024" version="1.1" xmlns="http://www.w3.org/2000/svg" p-id="4057" xmlns:xlink="http://www.w3.org/1999/xlink" width="15" height="15"><defs><style type="text/css"></style></defs><path d="M884.635338 961.939394C918.760417 961.939394 946.424242 934.40207 946.424242 899.890735L946.424242 682.523853C946.424242 665.465164 960.197508 651.636364 977.454545 651.636364 994.592116 651.636364 1008.484848 665.778766 1008.484848 682.743414L1008.484848 900.008302C1008.484848 968.487027 952.970768 1024 884.231509 1024L139.768491 1024C71.145255 1024 15.515152 968.253403 15.515152 900.008302L15.515152 682.743414C15.515152 665.563465 29.288417 651.636364 46.545455 651.636364 63.683025 651.636364 77.575758 665.775768 77.575758 682.523853L77.575758 899.890735C77.575758 934.159264 105.499865 961.939394 139.364662 961.939394L884.635338 961.939394ZM574.060606 451.812318 574.060606 451.812318C131.837176 464.432435 77.575758 611.024213 77.575758 611.024213 77.575758 386.561499 261.164839 163.658628 636.121212 170.630191L636.121212 109.71275 637.274919 108.580309C636.890205 108.573156 636.505647 108.566239 636.121212 108.559434L636.121212 94.281132C636.121212 26.024861 678.510623 6.284161 730.800624 50.806694L988.237514 270.002368C1014.438416 292.311217 1014.414957 328.457793 988.237514 350.782579L730.547572 570.547067C678.498056 614.936213 636.121212 595.605498 636.121212 527.178848L636.121212 450.948046C614.931642 450.948046 594.534648 451.236358 574.901062 451.788508L574.060606 450.948046 574.060606 451.812318ZM636.121212 388.88744C670.396323 388.88744 698.181818 416.67292 698.181818 450.948046L698.181818 515.778259 940.232363 310.30303 698.181818 104.304925 698.181818 170.630191C698.181818 205.356758 669.688087 233.32563 634.967505 232.680073 402.173797 228.351739 239.168884 321.535171 172.802793 460.773329 262.429665 418.150372 408.467859 388.887446 636.121212 388.88744Z" p-id="4058"></path></svg>