<?xml version="1.0" standalone="no"?><!DOCTYPE svg PUBLIC "-//W3C//DTD SVG 1.1//EN" "http://www.w3.org/Graphics/SVG/1.1/DTD/svg11.dtd"><svg t="1544598808778" class="icon" style="" viewBox="0 0 1024 1024" version="1.1" xmlns="http://www.w3.org/2000/svg" p-id="4919" xmlns:xlink="http://www.w3.org/1999/xlink" width="15" height="15"><defs><style type="text/css"></style></defs><path d="M382.663818 505.397628c0 28.252461-22.892383 51.161217-51.16838 51.161217-28.245298 0-51.15303-22.908756-51.15303-51.161217 0-28.268834 22.907733-51.169403 51.15303-51.169403C359.771435 454.228225 382.663818 477.128795 382.663818 505.397628z" p-id="4920"></path><path d="M563.160705 505.397628c0 28.252461-22.893406 51.161217-51.154054 51.161217-28.259624 0-51.16838-22.908756-51.16838-51.161217 0-28.268834 22.908756-51.169403 51.16838-51.169403C540.267299 454.228225 563.160705 477.128795 563.160705 505.397628z" p-id="4921"></path><path d="M743.656569 505.397628c0 28.252461-22.907733 51.161217-51.169403 51.161217-28.244274 0-51.15303-22.908756-51.15303-51.161217 0-28.268834 22.909779-51.169403 51.15303-51.169403C720.748836 454.228225 743.656569 477.128795 743.656569 505.397628z" p-id="4922"></path></svg>