<?xml version="1.0" standalone="no"?><!DOCTYPE svg PUBLIC "-//W3C//DTD SVG 1.1//EN" "http://www.w3.org/Graphics/SVG/1.1/DTD/svg11.dtd"><svg t="1544598736477" class="icon" style="" viewBox="0 0 1024 1024" version="1.1" xmlns="http://www.w3.org/2000/svg" p-id="2155" xmlns:xlink="http://www.w3.org/1999/xlink" width="15" height="15"><defs><style type="text/css"></style></defs><path d="M897.6 408.3c-14.4-33.3-63.9-41.5-116.6-41.5-51.9 0-106.9 8-134.4 8-55.5 0 69.5-302-131.5-302-100 0-67 145.5-83.5 277.5-8.4 67-72.6 104.8-133.7 125.7v-44.3h-200v499.5h200V888c13.7-1.1 27.7-1.7 41.5-1.7 11.6 0 22.9 0.5 33.8 1.5 53.4 5.2 179 28.7 293.8 28.7 72.1 0 139.9-9.3 182.7-38.2 110.9-75 76.4-404 47.9-470zM247.9 881.2h-100V481.7h100v399.5z m628-242.1c-0.9 50.5-6.4 95.4-16.1 129.9-9.6 34-22.8 57.5-38.2 67.9-20 13.5-63.1 29.7-154.7 29.7-80 0-166.1-12-228.9-20.8-23.8-3.3-44.4-6.2-60-7.7-11.9-1.2-24.9-1.8-38.6-1.8-13.8 0-27.8 0.6-41.5 1.6V528.5c6.4-1.9 12.8-4 19.3-6.3 123.9-43.4 157.6-114.1 164-165.7 4.7-37.8 5.7-76.6 6.5-110.8 1-42.5 2-82.6 9.7-107.1 3.2-10 6.2-13.1 7-13.8 1.5-1.3 5.5-2 10.6-2 34.4 0 45.5 11.8 49.1 15.7 10.4 11.1 17 30.5 19.7 57.8 3 29.6 0.8 63-1.1 92.4-3.4 52.6-5.8 90.6 18.6 116.6 11.7 12.5 27.8 19.4 45.1 19.4 13.8 0 31.2-1.5 51.5-3.3 25.8-2.2 55.1-4.8 83-4.8 55.1 0 69 10.3 70.9 11.9 9.8 23.4 25.8 112.2 24.1 210.6z" fill="#535962" p-id="2156"></path></svg>